<svg width="24" height="23" viewBox="0 0 24 23" fill="none" xmlns="http://www.w3.org/2000/svg">
<path d="M21.0178 0.5625H2.37429C1.96224 0.5625 1.56707 0.72712 1.27571 1.02015C0.984348 1.31317 0.820663 1.7106 0.820663 2.125V20.875C0.820663 21.2894 0.984348 21.6868 1.27571 21.9799C1.56707 22.2729 1.96224 22.4375 2.37429 22.4375H11.1781V14.1042H9.10665V10.9792H11.1781V8.89583C11.1781 7.79076 11.6146 6.73096 12.3916 5.94955C13.1686 5.16815 14.2223 4.72917 15.3211 4.72917H18.4284V7.85417H15.3211C15.0464 7.85417 14.783 7.96391 14.5888 8.15926C14.3945 8.35461 14.2854 8.61957 14.2854 8.89583V10.9792H18.4284L17.9105 14.1042H14.2854V22.4375H21.0178C21.4298 22.4375 21.825 22.2729 22.1163 21.9799C22.4077 21.6868 22.5714 21.2894 22.5714 20.875V2.125C22.5714 1.7106 22.4077 1.31317 22.1163 1.02015C21.825 0.72712 21.4298 0.5625 21.0178 0.5625Z" stroke="white" stroke-linecap="round" stroke-linejoin="round"/>
</svg>
