<svg width="24" height="23" viewBox="0 0 24 23" fill="none" xmlns="http://www.w3.org/2000/svg">
<path d="M7.49409 1.66667C4.72756 1.66667 2.47964 3.92948 2.47964 6.70833V16.2917C2.47964 19.0705 4.72756 21.3333 7.49409 21.3333H17.023C19.7895 21.3333 22.0374 19.0705 22.0374 16.2917V6.70833C22.0374 3.92948 19.7895 1.66667 17.023 1.66667H7.49409ZM17.023 22.75H7.49409C3.95628 22.75 1.07387 19.8541 1.07387 16.2917V6.70833C1.07387 3.14592 3.95628 0.25 7.49409 0.25H17.023C20.5608 0.25 23.4432 3.14592 23.4432 6.70833V16.2917C23.4432 19.8541 20.5608 22.75 17.023 22.75Z" fill="white" stroke="#242C3E" stroke-width="0.5"/>
<path d="M7.49408 5.49992C6.82851 5.49992 6.29119 6.04365 6.29119 6.70825V16.2916C6.29119 16.9562 6.82851 17.4999 7.49408 17.4999H17.023C17.6885 17.4999 18.2259 16.9562 18.2259 16.2916V6.70825C18.2259 6.04365 17.6885 5.49992 17.023 5.49992H7.49408ZM17.023 18.9166H7.49408C6.05742 18.9166 4.88542 17.7399 4.88542 16.2916V6.70825C4.88542 5.25989 6.05742 4.08325 7.49408 4.08325H17.023C18.4596 4.08325 19.6316 5.25989 19.6316 6.70825V16.2916C19.6316 17.7399 18.4596 18.9166 17.023 18.9166Z" fill="white" stroke="#242C3E" stroke-width="0.5"/>
<path d="M16.773 7.66659C16.773 8.05886 16.4567 8.37492 16.0701 8.37492C15.6835 8.37492 15.3672 8.05886 15.3672 7.66659C15.3672 7.27431 15.6835 6.95825 16.0701 6.95825C16.4567 6.95825 16.773 7.27431 16.773 7.66659Z" fill="white" stroke="#242C3E" stroke-width="0.5"/>
<path d="M12.2585 9.33341C11.0681 9.33341 10.1027 10.3063 10.1027 11.5001C10.1027 12.6939 11.0681 13.6667 12.2585 13.6667C13.449 13.6667 14.4143 12.6939 14.4143 11.5001C14.4143 10.3063 13.449 9.33341 12.2585 9.33341ZM12.2585 15.0834C10.2959 15.0834 8.69697 13.4774 8.69697 11.5001C8.69697 9.52272 10.2959 7.91675 12.2585 7.91675C14.2212 7.91675 15.8201 9.52272 15.8201 11.5001C15.8201 13.4774 14.2212 15.0834 12.2585 15.0834Z" fill="white" stroke="#242C3E" stroke-width="0.5"/>
</svg>
