<svg width="23" height="22" viewBox="0 0 23 22" fill="none" xmlns="http://www.w3.org/2000/svg">
<path d="M5.70449 7.75002C5.70423 7.75002 5.70469 7.75002 5.70449 7.75002H1.39512C1.09782 7.74982 0.856731 7.99209 0.856534 8.29102C0.856534 8.29082 0.856534 8.29129 0.856534 8.29102V21.2917C0.856337 21.5907 1.09723 21.8332 1.39447 21.8334C1.39427 21.8334 1.39473 21.8334 1.39447 21.8334H5.70384C6.00114 21.8335 6.24223 21.5913 6.24242 21.2923C6.24242 21.2921 6.24242 21.2925 6.24242 21.2923V8.29168C6.24262 7.99268 6.00173 7.75022 5.70449 7.75002ZM5.16525 20.75H1.93371V8.83335H5.16525V20.75ZM17.0142 7.75002C15.8456 7.75008 14.7097 8.13795 13.7827 8.85345V8.29168C13.7829 7.99268 13.542 7.75022 13.2447 7.75002C13.2445 7.75002 13.2449 7.75002 13.2447 7.75002H8.93537C8.63807 7.74982 8.39698 7.99209 8.39678 8.29102C8.39678 8.29082 8.39678 8.29129 8.39678 8.29102V21.2917C8.39658 21.5907 8.63748 21.8332 8.93478 21.8334C8.93458 21.8334 8.93498 21.8334 8.93478 21.8334H13.2441C13.5414 21.8335 13.7825 21.5913 13.7827 21.2923C13.7827 21.2921 13.7827 21.2925 13.7827 21.2923V15.3334C13.7827 14.4359 14.5061 13.7084 15.3984 13.7084C16.2908 13.7084 17.0142 14.4359 17.0142 15.3334V21.2917C17.014 21.5907 17.2549 21.8332 17.5522 21.8334C17.552 21.8334 17.5524 21.8334 17.5522 21.8334H21.8615C22.1588 21.8335 22.3999 21.5913 22.4001 21.2923C22.4001 21.2921 22.4001 21.2925 22.4001 21.2923V13.1667C22.3966 10.1766 19.9873 7.75352 17.0142 7.75002ZM21.3229 20.75H18.0914V15.3334C18.0914 13.8376 16.8857 12.625 15.3984 12.625C13.9111 12.625 12.7055 13.8376 12.7055 15.3334V20.75H9.47396V8.83335H12.7055V10.1367C12.7055 10.3669 12.8503 10.5719 13.0664 10.6477C13.282 10.7259 13.5231 10.6564 13.6649 10.4753C15.1326 8.60457 17.8303 8.28474 19.6904 9.7609C20.7265 10.5832 21.3286 11.8393 21.3229 13.1667V20.75ZM3.94586 0.168667C3.81917 0.159741 3.69202 0.159079 3.56526 0.166683C1.9395 0.0550042 0.531553 1.28995 0.420509 2.925C0.416038 2.9908 0.413802 3.05665 0.413671 3.12258C0.399667 4.74374 1.69506 6.06934 3.30701 6.08343C3.37282 6.08402 3.43857 6.0823 3.50425 6.0784H3.53475C5.15742 6.19259 6.56484 4.96221 6.67838 3.33026C6.79193 1.69832 5.56853 0.282859 3.94586 0.168667ZM3.90865 4.99818C3.78426 5.00968 3.65895 5.00869 3.53475 4.99507H3.50425C2.47434 5.07468 1.57533 4.2996 1.49617 3.26381C1.41702 2.22808 2.18769 1.32387 3.21759 1.24426C3.33344 1.23534 3.44981 1.23726 3.56526 1.25002C4.59438 1.15467 5.50555 1.91639 5.60042 2.95139C5.69522 3.98645 4.93783 4.90283 3.90865 4.99818Z" fill="#D6D6D6"/>
</svg>
