<svg width="18" height="21" viewBox="0 0 18 21" fill="none" xmlns="http://www.w3.org/2000/svg">
<path d="M17.6422 4.46688C17.1859 4.46311 16.0141 4.35003 15.0176 3.40765C13.8349 2.2881 13.7436 0.810447 13.7436 0.384491C13.7436 0.177167 13.583 0.0113086 13.3859 0.00753903L9.62236 0C9.42159 0 9.25732 0.169628 9.25732 0.376952V14.1621C9.25367 15.5945 8.12206 16.7593 6.73857 16.7593C5.35143 16.7593 4.21982 15.5907 4.21982 14.1583C4.21982 12.7259 5.35143 11.5574 6.73857 11.5574C6.98314 11.5574 7.23502 11.595 7.48324 11.6704C7.59275 11.7044 7.71322 11.6817 7.80448 11.6101C7.89573 11.5385 7.95049 11.4254 7.95049 11.3086V7.77275C7.95049 7.58428 7.81908 7.42596 7.64021 7.39957C7.29708 7.3468 6.95759 7.32041 6.62541 7.32041C2.9714 7.32041 0 10.3888 0 14.1621C0 17.9316 2.9714 21 6.62541 21C10.2794 21 13.2508 17.9316 13.2508 14.1621V7.56543C14.2328 8.53419 15.5505 9.09208 16.934 9.09208C17.2005 9.09208 17.456 9.07324 17.6933 9.03177C17.8722 9.00162 17.9999 8.8433 17.9999 8.65859V4.84383C18.0036 4.63651 17.843 4.46688 17.6422 4.46688ZM17.2735 8.3231C17.164 8.33064 17.0508 8.33441 16.9377 8.33441C15.4483 8.33441 14.0466 7.58805 13.1888 6.3328C13.0975 6.19709 12.9332 6.14055 12.7799 6.18955C12.6266 6.23856 12.5244 6.38557 12.5244 6.54766V14.1546C12.5244 17.5094 9.87788 20.2386 6.62906 20.2386C3.37659 20.2386 0.733723 17.5094 0.733723 14.1546C0.733723 10.7959 3.38024 8.06677 6.62906 8.06677C6.82253 8.06677 7.0233 8.07808 7.22407 8.09693V10.8298C7.06345 10.8034 6.89919 10.7921 6.73857 10.7921C4.94624 10.7921 3.48975 12.2962 3.48975 14.147C3.48975 15.9978 4.94624 17.5019 6.73857 17.5019C8.5236 17.5019 9.98009 16.0016 9.98739 14.1508V0.753904H12.8821L13.0318 0.757674C13.0939 1.49273 13.3676 2.87238 14.5248 3.96554C15.4958 4.8853 16.6091 5.13786 17.2735 5.20194V8.3231Z" fill="white"/>
</svg>
