<svg width="29" height="23" viewBox="0 0 29 23" fill="none" xmlns="http://www.w3.org/2000/svg">
<path d="M11.4708 6.0625V16.9375L19.881 11.5L11.4708 6.0625Z" stroke="white" stroke-linecap="round" stroke-linejoin="round"/>
<path d="M3.81742 2.03887L6.06416 1.74887C8.8541 1.39982 11.663 1.22628 14.4744 1.22929C17.2859 1.22628 20.0948 1.39982 22.8847 1.74887L25.1675 2.03887C26.0445 2.14846 26.8509 2.57824 27.4334 3.24656C28.016 3.91487 28.3341 4.77513 28.3274 5.66387V17.3847C28.3341 18.2734 28.016 19.1337 27.4334 19.802C26.8509 20.4703 26.0445 20.9001 25.1675 21.0097L22.8847 21.2997C20.0948 21.6488 17.2859 21.8223 14.4744 21.8193C11.663 21.8223 8.8541 21.6488 6.06416 21.2997L3.78137 21.0097C2.9044 20.9001 2.09802 20.4703 1.51546 19.802C0.932902 19.1337 0.614768 18.2734 0.621512 17.3847V5.6397C0.62171 4.74957 0.947549 3.89063 1.53693 3.22657C2.12632 2.56251 2.93804 2.13975 3.81742 2.03887Z" stroke="white" stroke-linecap="round" stroke-linejoin="round"/>
</svg>
