<svg width="379" height="379" viewBox="0 0 379 379" fill="none" xmlns="http://www.w3.org/2000/svg">
<path d="M-0.000228882 189.959C-0.000228882 217.494 6.0004 244.698 17.584 269.678C29.1676 294.658 46.0558 316.814 67.0732 334.603C88.0906 352.392 112.732 365.387 139.283 372.684C165.834 379.981 193.544 380.338 220.701 375.788L207.214 295.692C191.851 298.266 176.111 297.461 161.09 293.333C146.07 289.205 132.129 281.853 120.239 271.789C108.348 261.725 98.794 249.191 92.2407 235.059C85.6875 220.927 82.2927 205.536 82.2927 189.959L40.8362 164.264L-0.000228882 189.959Z" fill="url(#paint0_linear_865_2405)"/>
<path d="M379 189.041C379 235.447 361.972 280.239 331.145 314.926C300.318 349.613 257.834 371.782 211.749 377.23L182.618 339.081L202.087 295.507C228.159 292.424 252.194 279.882 269.634 260.259C287.074 240.635 296.707 215.295 296.707 189.041H379Z" fill="url(#paint1_linear_865_2405)"/>
<path d="M379 189.5C379 161.965 372.999 134.76 361.416 109.78C349.832 84.8003 332.944 62.6446 311.927 44.8556C290.909 27.0665 266.268 14.0713 239.717 6.77463C213.166 -0.522079 185.344 -1.94504 158.188 2.60478L171.785 83.7665C187.149 81.1925 202.889 81.9975 217.909 86.1255C232.93 90.2536 246.871 97.6054 258.761 107.669C270.651 117.733 280.206 130.268 286.759 144.4C293.312 158.532 296.707 173.922 296.707 189.5L338.163 215.195L379 189.5Z" fill="url(#paint2_linear_865_2405)"/>
<path d="M-0.000137329 189.5C-0.000137329 143.094 17.0278 98.3017 47.8551 63.615C78.6824 28.9283 121.166 6.75907 167.251 1.31055L196.382 39.46L176.913 83.0343C150.841 86.1167 126.806 98.6587 109.366 118.282C91.9261 137.906 82.2928 163.247 82.2928 189.5H-0.000137329Z" fill="url(#paint3_linear_865_2405)"/>
<path d="M0.000106812 189.042C0.000106812 216.577 6.00073 243.781 17.5843 268.761C29.1679 293.741 46.0561 315.897 67.0735 333.686C88.0909 351.475 112.733 364.47 139.283 371.767C165.834 379.064 171.606 375.789 166.558 375.789L202.348 295.492C186.984 298.066 176.111 296.544 161.091 292.416C146.07 288.288 132.129 280.936 120.239 270.872C108.349 260.808 98.7943 248.274 92.2411 234.142C85.6878 220.01 82.2931 204.619 82.2931 189.042L40.8366 163.347L0.000106812 189.042Z" fill="url(#paint4_linear_865_2405)"/>
<mask id="mask0_865_2405" style="mask-type:alpha" maskUnits="userSpaceOnUse" x="100" y="100" width="179" height="179">
<circle cx="189.041" cy="189.959" r="89.0145" fill="#D9D9D9"/>
</mask>
<g mask="url(#mask0_865_2405)">
<rect x="81.6729" y="73.4141" width="242.266" height="80.7555" fill="url(#paint5_linear_865_2405)"/>
<rect x="81.6729" y="221.16" width="242.266" height="80.7555" fill="url(#paint6_linear_865_2405)"/>
<rect x="75.249" y="160.593" width="242.266" height="54.1429" fill="url(#paint7_linear_865_2405)"/>
</g>
<path d="M161.028 141.721V137.724H162.878C165.141 137.724 166.281 136.105 166.281 134.222C166.281 132.339 165.141 130.704 162.878 130.704H158.814V141.721H161.028ZM164.018 134.222C164.018 135.163 163.456 135.808 162.614 135.808H161.028V132.636H162.614C163.456 132.636 164.018 133.264 164.018 134.222ZM173.932 141.721V139.789H169.835V137.08H173.816V135.163H169.835V132.636H173.932V130.704H167.622V141.721H173.932ZM183.123 141.721L181.125 137.344C182.033 137.047 183.041 136.088 183.041 134.189C183.041 132.157 181.703 130.704 179.688 130.704H175.575V141.721H177.788V137.724H178.977L180.662 141.721H183.123ZM180.778 134.222C180.778 135.163 180.216 135.808 179.357 135.808H177.788V132.636H179.357C180.216 132.636 180.778 133.247 180.778 134.222ZM183.962 140.499C184.838 141.374 186.06 141.919 187.728 141.919C190.14 141.919 191.461 140.499 191.461 138.566C191.461 136.386 189.727 135.659 188.306 135.097C187.315 134.684 186.556 134.338 186.556 133.594C186.556 132.934 187.051 132.471 187.877 132.471C188.703 132.471 189.545 132.768 190.206 133.396L191.263 131.744C190.421 130.951 189.264 130.522 187.927 130.522C185.647 130.522 184.293 131.992 184.293 133.726C184.293 135.907 186.027 136.568 187.414 137.113C188.422 137.542 189.215 137.905 189.215 138.748C189.215 139.425 188.686 139.97 187.695 139.97C186.622 139.97 185.664 139.475 185.052 138.797L183.962 140.499ZM192.453 136.221C192.453 139.508 194.171 141.919 197.045 141.919C199.936 141.919 201.654 139.508 201.654 136.221C201.654 132.95 199.936 130.522 197.045 130.522C194.171 130.522 192.453 132.95 192.453 136.221ZM199.391 136.221C199.391 138.318 198.565 139.954 197.045 139.954C195.542 139.954 194.733 138.318 194.733 136.221C194.733 134.09 195.542 132.488 197.045 132.488C198.565 132.488 199.391 134.09 199.391 136.221ZM211.252 141.721V130.704H209.039V137.443L205.421 130.704H203.175V141.721H205.372V134.701L209.138 141.721H211.252ZM221.402 141.721L218.131 130.704H215.455L212.184 141.721H214.48L214.993 139.756H218.594L219.106 141.721H221.402ZM218.148 137.823H215.439L216.793 132.669L218.148 137.823Z" fill="white"/>
<path d="M131.663 194.947V183.929H129.449V194.947H131.663ZM141.688 194.947V183.929H139.475V190.669L135.857 183.929H133.611V194.947H135.808V187.927L139.574 194.947H141.688ZM145.842 194.947V190.305H149.823V188.389H145.842V185.862H149.938V183.929H143.628V194.947H145.842ZM151.436 191.148C151.436 193.691 152.972 195.145 155.466 195.145C157.96 195.145 159.497 193.691 159.497 191.148V183.929H157.267V191.164C157.267 192.469 156.639 193.196 155.466 193.196C154.293 193.196 153.666 192.469 153.666 191.164V183.929H151.436V191.148ZM169.002 194.947L167.003 190.569C167.912 190.272 168.919 189.314 168.919 187.414C168.919 185.383 167.581 183.929 165.566 183.929H161.453V194.947H163.667V190.949H164.856L166.541 194.947H169.002ZM166.656 187.448C166.656 188.389 166.095 189.033 165.236 189.033H163.667V185.862H165.236C166.095 185.862 166.656 186.473 166.656 187.448ZM169.841 193.724C170.716 194.6 171.939 195.145 173.607 195.145C176.019 195.145 177.34 193.724 177.34 191.792C177.34 189.611 175.606 188.885 174.185 188.323C173.194 187.91 172.434 187.563 172.434 186.82C172.434 186.159 172.93 185.697 173.756 185.697C174.581 185.697 175.424 185.994 176.085 186.622L177.142 184.97C176.299 184.177 175.143 183.747 173.805 183.747C171.526 183.747 170.171 185.218 170.171 186.952C170.171 189.132 171.906 189.793 173.293 190.338C174.301 190.768 175.094 191.131 175.094 191.974C175.094 192.651 174.565 193.196 173.574 193.196C172.5 193.196 171.542 192.7 170.931 192.023L169.841 193.724ZM182.68 194.947V185.878H185.124V183.929H178.005V185.878H180.466V194.947H182.68ZM193.989 194.947L191.99 190.569C192.899 190.272 193.906 189.314 193.906 187.414C193.906 185.383 192.568 183.929 190.553 183.929H186.44V194.947H188.653V190.949H189.843L191.528 194.947H193.989ZM191.643 187.448C191.643 188.389 191.082 189.033 190.223 189.033H188.653V185.862H190.223C191.082 185.862 191.643 186.473 191.643 187.448ZM199.717 195.145C201.897 195.145 202.905 193.691 203.45 192.37L201.617 191.577C201.303 192.486 200.659 193.179 199.717 193.179C198.263 193.179 197.371 191.61 197.371 189.446C197.371 187.282 198.263 185.713 199.717 185.713C200.626 185.713 201.27 186.324 201.6 187.2L203.434 186.39C202.872 185.118 201.864 183.747 199.717 183.747C196.892 183.747 195.092 186.11 195.092 189.446C195.092 192.783 196.892 195.145 199.717 195.145ZM204.749 191.148C204.749 193.691 206.285 195.145 208.779 195.145C211.273 195.145 212.81 193.691 212.81 191.148V183.929H210.58V191.164C210.58 192.469 209.952 193.196 208.779 193.196C207.606 193.196 206.979 192.469 206.979 191.164V183.929H204.749V191.148ZM218.813 194.947V185.878H221.258V183.929H214.138V185.878H216.6V194.947H218.813ZM222.574 191.148C222.574 193.691 224.11 195.145 226.604 195.145C229.098 195.145 230.634 193.691 230.634 191.148V183.929H228.404V191.164C228.404 192.469 227.777 193.196 226.604 193.196C225.431 193.196 224.803 192.469 224.803 191.164V183.929H222.574V191.148ZM240.14 194.947L238.141 190.569C239.05 190.272 240.057 189.314 240.057 187.414C240.057 185.383 238.719 183.929 236.704 183.929H232.591V194.947H234.804V190.949H235.994L237.678 194.947H240.14ZM237.794 187.448C237.794 188.389 237.233 189.033 236.374 189.033H234.804V185.862H236.374C237.233 185.862 237.794 186.473 237.794 187.448ZM247.999 194.947V193.014H243.902V190.305H247.883V188.389H243.902V185.862H247.999V183.929H241.689V194.947H247.999Z" fill="white"/>
<path d="M148.181 247.254V243.257H150.031C152.294 243.257 153.433 241.638 153.433 239.755C153.433 237.872 152.294 236.237 150.031 236.237H145.967V247.254H148.181ZM151.17 239.755C151.17 240.697 150.609 241.341 149.766 241.341H148.181V238.169H149.766C150.609 238.169 151.17 238.797 151.17 239.755ZM154.329 241.754C154.329 245.041 156.047 247.453 158.921 247.453C161.812 247.453 163.529 245.041 163.529 241.754C163.529 238.483 161.812 236.055 158.921 236.055C156.047 236.055 154.329 238.483 154.329 241.754ZM161.266 241.754C161.266 243.852 160.441 245.487 158.921 245.487C157.418 245.487 156.608 243.852 156.608 241.754C156.608 239.623 157.418 238.021 158.921 238.021C160.441 238.021 161.266 239.623 161.266 241.754ZM164.34 246.032C165.215 246.908 166.438 247.453 168.106 247.453C170.518 247.453 171.839 246.032 171.839 244.099C171.839 241.919 170.105 241.192 168.684 240.631C167.693 240.218 166.933 239.871 166.933 239.127C166.933 238.467 167.429 238.004 168.255 238.004C169.081 238.004 169.923 238.302 170.584 238.929L171.641 237.277C170.799 236.485 169.642 236.055 168.304 236.055C166.025 236.055 164.67 237.525 164.67 239.26C164.67 241.44 166.405 242.101 167.792 242.646C168.8 243.075 169.593 243.439 169.593 244.281C169.593 244.958 169.064 245.503 168.073 245.503C166.999 245.503 166.041 245.008 165.43 244.331L164.34 246.032ZM175.49 247.254V236.237H173.277V247.254H175.49ZM181.486 247.254V238.186H183.931V236.237H176.811V238.186H179.272V247.254H181.486ZM187.46 247.254V236.237H185.246V247.254H187.46ZM188.962 241.754C188.962 245.041 190.68 247.453 193.554 247.453C196.445 247.453 198.163 245.041 198.163 241.754C198.163 238.483 196.445 236.055 193.554 236.055C190.68 236.055 188.962 238.483 188.962 241.754ZM195.9 241.754C195.9 243.852 195.074 245.487 193.554 245.487C192.051 245.487 191.242 243.852 191.242 241.754C191.242 239.623 192.051 238.021 193.554 238.021C195.074 238.021 195.9 239.623 195.9 241.754ZM207.761 247.254V236.237H205.547V242.976L201.93 236.237H199.684V247.254H201.88V240.234L205.647 247.254H207.761ZM211.914 247.254V236.237H209.701V247.254H211.914ZM221.94 247.254V236.237H219.727V242.976L216.109 236.237H213.863V247.254H216.06V240.234L219.826 247.254H221.94ZM223.434 241.754C223.434 245.173 225.301 247.453 228.092 247.453C229.711 247.453 230.933 246.792 231.858 245.702V241.225H227.696V243.141H229.777V244.826C229.43 245.19 228.836 245.487 228.092 245.487C226.688 245.487 225.714 244.116 225.714 241.754C225.714 239.392 226.688 238.021 228.092 238.021C229.001 238.021 229.612 238.615 229.959 239.392L231.759 238.566C231.165 237.195 230.008 236.055 228.092 236.055C225.301 236.055 223.434 238.318 223.434 241.754Z" fill="white"/>
<path d="M58.7968 132.369C60.3851 128.79 58.6356 125.582 54.843 123.899C51.0504 122.216 47.4701 123.083 45.8904 126.643L44.0446 130.803L56.951 136.53L58.7968 132.369ZM47.4783 129.223L48.1737 127.656C49.0408 125.702 51.1126 125.417 53.6668 126.55C56.1243 127.64 57.3635 129.441 56.5135 131.356L55.8181 132.924L47.4783 129.223Z" fill="white"/>
<path d="M69.2712 112.933L67.1605 111.637L64.4135 116.111L61.455 114.294L64.1245 109.947L62.0318 108.662L59.3624 113.01L56.6023 111.315L59.3492 106.841L57.2386 105.545L53.0073 112.436L65.0399 119.824L69.2712 112.933Z" fill="white"/>
<path d="M78.6842 100.333L76.7269 98.781L73.7808 102.497L64.6743 95.2758L62.9119 97.4985L73.9756 106.271L78.6842 100.333Z" fill="white"/>
<path d="M85.7235 92.7364L75.6106 82.8825L73.631 84.9142L83.7439 94.7681L85.7235 92.7364Z" fill="white"/>
<path d="M87.0988 81.5796C89.8645 84.9785 93.5638 85.7347 96.3388 83.4767C97.9479 82.1673 98.6285 80.5218 98.6662 78.6898L95.0454 74.24L90.9076 77.607L92.4575 79.5117L94.5264 77.8282L95.8892 79.5031C95.8383 80.1449 95.4877 80.9214 94.7488 81.5227C93.3531 82.6584 91.2754 82.0838 89.3647 79.7358C87.4541 77.3877 87.3139 75.2366 88.7096 74.1009C89.6127 73.3661 90.7012 73.4628 91.674 73.954L92.7957 71.6766C91.0956 70.7948 89.0243 70.5971 87.1196 72.1469C84.3447 74.405 84.3197 78.1643 87.0988 81.5796Z" fill="white"/>
<path d="M115.626 70.0886L108.353 57.986L105.904 59.458L108.793 64.2664L104.783 66.6762L101.894 61.8678L99.4622 63.329L106.735 75.4315L109.167 73.9704L106.07 68.8173L110.08 66.4075L113.177 71.5606L115.626 70.0886Z" fill="white"/>
<path d="M127.714 64.3502L123.103 53.6825L125.979 52.4393L124.987 50.1464L116.613 53.7669L117.604 56.0598L120.499 54.8082L125.111 65.4758L127.714 64.3502Z" fill="white"/>
<path d="M262.694 67.472L266.66 53.581L263.822 51.7753L252.919 61.2524L255.354 62.8017L257.223 61.0627L261.042 63.4926L260.259 65.9227L262.694 67.472ZM261.873 61.1421L259 59.3141L263.914 54.7627L261.873 61.1421Z" fill="white"/>
<path d="M272.236 74.6653L279.288 65.7099L281.702 67.611L283.218 65.6862L276.187 60.1497L274.672 62.0746L277.102 63.9886L270.05 72.9439L272.236 74.6653Z" fill="white"/>
<path d="M284.258 85.2586L292.143 77.0277L294.362 79.1535L296.057 77.3844L289.595 71.1936L287.901 72.9627L290.134 75.1029L282.249 83.3338L284.258 85.2586Z" fill="white"/>
<path d="M298.051 100.313L300.605 94.8299C301.631 95.456 303.369 95.6377 305.185 94.0878C307.128 92.4301 307.426 89.9648 305.782 88.0379L302.426 84.1052L291.891 93.0947L293.697 95.2111L297.52 91.9495L298.49 93.0867L296.042 97.9592L298.051 100.313ZM303.307 91.951C302.407 92.7192 301.333 92.7078 300.632 91.8866L299.352 90.3861L302.384 87.7984L303.665 89.2989C304.365 90.1202 304.239 91.1558 303.307 91.951Z" fill="white"/>
<path d="M308.564 114.928L317.644 103.691L315.738 100.92L301.998 105.382L303.634 107.76L306.034 106.89L308.6 110.619L306.929 112.55L308.564 114.928ZM310.283 108.78L308.353 105.975L314.655 103.706L310.283 108.78Z" fill="white"/>
<path d="M314.39 125.537C315.693 127.948 317.902 128.194 319.689 128.008L319.471 125.506C318.279 125.702 317.127 125.404 316.564 124.363C315.696 122.755 316.898 120.831 319.291 119.539C321.684 118.246 323.953 118.295 324.821 119.903C325.364 120.907 325.073 121.985 324.302 122.873L326.293 124.417C327.364 123.036 328.278 121.103 326.995 118.728C325.308 115.604 321.62 115.024 317.93 117.018C314.239 119.011 312.703 122.413 314.39 125.537Z" fill="white"/>
<path d="M322.337 141.844L332.874 137.495L334.046 140.336L336.311 139.401L332.897 131.129L330.632 132.064L331.812 134.923L321.276 139.272L322.337 141.844Z" fill="white"/>
<path d="M311.462 259.921L313.59 260.846L315.55 256.336L318.533 257.632L316.628 262.015L318.737 262.932L320.642 258.549L323.425 259.758L321.465 264.269L323.593 265.193L326.612 258.246L314.481 252.974L311.462 259.921Z" fill="white"/>
<path d="M302.903 275.064L314.18 281.976L315.569 279.71L308.67 275.482L317.838 276.007L319.247 273.708L307.97 266.796L306.592 269.045L313.777 273.449L304.229 272.9L302.903 275.064Z" fill="white"/>
<path d="M303.754 285.226C300.612 282.584 297.075 282.539 294.919 285.104C293.669 286.592 293.332 288.226 293.619 289.918L297.733 293.376L300.948 289.55L299.187 288.07L297.58 289.983L296.031 288.681C295.965 288.082 296.151 287.306 296.726 286.623C297.81 285.332 299.823 285.496 301.994 287.32C304.164 289.145 304.671 291.1 303.587 292.39C302.885 293.225 301.867 293.327 300.885 293.046L300.253 295.339C301.973 295.851 303.913 295.669 305.393 293.908C307.55 291.343 306.912 287.88 303.754 285.226Z" fill="white"/>
<path d="M279.3 300.924L291.027 308.193L293.427 306.057L287.565 293.567L285.506 295.4L286.616 297.571L283.387 300.445L281.359 299.091L279.3 300.924ZM285.33 301.822L287.759 299.66L290.658 305.363L285.33 301.822Z" fill="white"/>
<path d="M278.174 310.086C275.915 306.659 272.538 305.607 269.74 307.452C268.117 308.521 267.329 309.991 267.122 311.695L270.08 316.182L274.252 313.431L272.986 311.511L270.9 312.886L269.786 311.197C269.894 310.604 270.294 309.913 271.039 309.422C272.446 308.494 274.329 309.224 275.889 311.592C277.45 313.959 277.379 315.978 275.972 316.905C275.061 317.506 274.056 317.313 273.195 316.764L271.936 318.782C273.438 319.763 275.35 320.142 277.271 318.876C280.069 317.031 280.444 313.529 278.174 310.086Z" fill="white"/>
<path d="M252.327 317.214L253.322 319.31L257.765 317.202L259.159 320.141L254.841 322.189L255.827 324.267L260.145 322.219L261.445 324.96L257.002 327.068L257.997 329.164L264.841 325.917L259.171 313.967L252.327 317.214Z" fill="white"/>
<path d="M105.296 306.13C102.996 305.149 101.28 306.229 100.11 307.378L101.687 309.039C102.427 308.222 103.419 307.78 104.412 308.204C105.945 308.858 106.18 310.914 105.206 313.196C104.233 315.479 102.586 316.733 101.053 316.079C100.094 315.67 99.6898 314.735 99.7352 313.663L97.4371 313.692C97.4572 315.286 97.9031 317.186 100.168 318.152C103.147 319.423 106.109 317.742 107.611 314.222C109.112 310.703 108.276 307.401 105.296 306.13Z" fill="white"/>
<path d="M88.8773 297.305L87.6657 299.183L91.2312 301.483L85.5943 310.222L87.7273 311.597L94.5757 300.981L88.8773 297.305Z" fill="white"/>
<path d="M79.5301 298.222C82.0951 295.46 82.5335 292.093 80.1184 289.85C77.6894 287.595 74.3641 288.281 71.799 291.043C69.2469 293.791 68.7957 297.172 71.2246 299.427C73.6397 301.67 76.978 300.97 79.5301 298.222ZM73.7006 292.809C75.3375 291.046 77.3076 290.316 78.5845 291.502C79.8476 292.675 79.2516 294.681 77.6147 296.443C75.9519 298.234 74.0215 298.949 72.7585 297.776C71.4815 296.59 72.0378 294.599 73.7006 292.809Z" fill="white"/>
<path d="M70.3799 282.095C70.5842 280.69 70.2471 279.193 69.103 277.659C67.4493 275.443 65.2375 275.202 63.4612 276.528C61.4572 278.023 61.9786 280.115 62.4365 281.806C62.7366 283 62.9388 283.936 62.2556 284.446C61.6483 284.899 60.8834 284.761 60.3171 284.002C59.7507 283.243 59.4463 282.265 59.5702 281.227L57.3271 281.388C57.176 282.706 57.5742 284.063 58.4917 285.293C60.0548 287.388 62.3348 287.625 63.9289 286.435C65.9329 284.94 65.3508 282.893 64.9003 281.244C64.6041 280.023 64.3944 279.045 65.1687 278.468C65.7911 278.003 66.6546 278.115 67.3342 279.026C68.0705 280.013 68.272 281.234 68.0686 282.26L70.3799 282.095Z" fill="white"/>
<path d="M59.4552 262.125L57.4866 263.143L59.644 267.316L56.8845 268.742L54.788 264.687L52.8362 265.696L54.9327 269.751L52.3584 271.082L50.201 266.909L48.2323 267.927L51.5554 274.355L62.7783 268.552L59.4552 262.125Z" fill="white"/>
<defs>
<linearGradient id="paint0_linear_865_2405" x1="189.5" y1="0.458449" x2="189.5" y2="379.459" gradientUnits="userSpaceOnUse">
<stop stop-color="#E7B942"/>
<stop offset="1" stop-color="#E76642"/>
</linearGradient>
<linearGradient id="paint1_linear_865_2405" x1="189.5" y1="378.541" x2="301.916" y2="189.041" gradientUnits="userSpaceOnUse">
<stop stop-color="#005ECC"/>
<stop offset="1" stop-color="#0EE3BB" stop-opacity="0.81"/>
</linearGradient>
<linearGradient id="paint2_linear_865_2405" x1="189.5" y1="379" x2="189.5" y2="-0.000460923" gradientUnits="userSpaceOnUse">
<stop stop-color="#E7B942"/>
<stop offset="1" stop-color="#E76642"/>
</linearGradient>
<linearGradient id="paint3_linear_865_2405" x1="189.5" y1="-9.97624e-05" x2="31.2007" y2="202.806" gradientUnits="userSpaceOnUse">
<stop stop-color="#005ECC"/>
<stop offset="1" stop-color="#04FBCC" stop-opacity="0.83"/>
</linearGradient>
<linearGradient id="paint4_linear_865_2405" x1="189.5" y1="-0.458537" x2="189.5" y2="378.542" gradientUnits="userSpaceOnUse">
<stop stop-color="#E7B942"/>
<stop offset="1" stop-color="#E76642"/>
</linearGradient>
<linearGradient id="paint5_linear_865_2405" x1="202.806" y1="94.9794" x2="202.806" y2="154.17" gradientUnits="userSpaceOnUse">
<stop stop-color="#5E9DFB"/>
<stop offset="1" stop-color="#8247FF"/>
</linearGradient>
<linearGradient id="paint6_linear_865_2405" x1="202.806" y1="242.726" x2="202.806" y2="301.916" gradientUnits="userSpaceOnUse">
<stop stop-color="#5E9DFB"/>
<stop offset="1" stop-color="#8247FF"/>
</linearGradient>
<linearGradient id="paint7_linear_865_2405" x1="102.779" y1="184.453" x2="279.891" y2="187.206" gradientUnits="userSpaceOnUse">
<stop stop-color="#07C0B5"/>
<stop offset="1" stop-color="#07C073"/>
</linearGradient>
</defs>
</svg>
